Coordinates
version=1
nRows=14
nColumns=24
inDegrees=yes

Units are S.I. units (second, meters, Newtons, ...)
Angles are in degrees.

endheader
time	pelvis_tilt	pelvis_list	pelvis_rotation	pelvis_tx	pelvis_ty	pelvis_tz	hip_flexion_r	hip_adduction_r	hip_rotation_r	knee_angle_r	ankle_angle_r	subtalar_angle_r	mtp_angle_r	hip_flexion_l	hip_adduction_l	hip_rotation_l	knee_angle_l	ankle_angle_l	subtalar_angle_l	mtp_angle_l	lumbar_extension	lumbar_bending	lumbar_rotation
      0.84600000	      3.39408794	      0.76587656	     -1.49674518	     -0.47004432	      1.02810762	      0.32500623	      3.69276467	      3.78472814	      1.32800492	    -13.22093642	      5.32135292	    -14.72921638	      8.37733873	     11.38028973	     -2.29786727	     -5.43972181	    -65.52568606	      2.12402629	    -16.41494657	     -1.40729059	     -6.76967094	     -1.09921369	      3.49276910
      0.85016667	      3.37134247	      0.87736748	     -1.70391555	     -0.46497850	      1.02870770	      0.32562941	      3.24575818	      3.67012536	      1.45239135	    -12.88826958	      5.40006506	    -14.56979396	      8.38933260	     11.87997666	     -2.17359855	     -5.61062958	    -65.10097858	      2.39990133	    -15.80492953	     -1.40816631	     -6.76279445	     -1.23210314	      3.84694125
      0.85433333	      3.34025918	      0.99012709	     -1.91472128	     -0.45990984	      1.02925770	      0.32624028	      2.81009625	      3.55007456	      1.56502226	    -12.55708498	      5.48106248	    -14.41425815	      8.40206960	     12.37578562	     -2.04994892	     -5.78608033	    -64.62853752	      2.66918951	    -15.17173239	     -1.39264081	     -6.73649368	     -1.36579914	      4.19333750
      0.85850000	      3.33101840	      1.09377735	     -2.12065034	     -0.45487177	      1.02979089	      0.32684653	      2.34890076	      3.43789040	      1.67827109	    -12.21738184	      5.56215000	    -14.25382732	      8.41608865	     12.84193469	     -1.94150625	     -5.96159289	    -64.11919432	      2.93545095	    -14.52052952	     -1.36113062	     -6.74623415	     -1.50421085	      4.54598712
      0.86266667	      3.31608326	      1.19452699	     -2.33076269	     -0.44985282	      1.03025651	      0.32743705	      1.90167002	      3.32545606	      1.79203295	    -11.88913523	      5.64293270	    -14.10249568	      8.43039547	     13.30339833	     -1.83642839	     -6.13822850	    -63.56912593	      3.20076862	    -13.85097528	     -1.31522700	     -6.74549618	     -1.62402766	      4.88590432
      0.86683333	      3.30952437	      1.30747369	     -2.53747697	     -0.44482013	      1.03071168	      0.32800466	      1.44930242	      3.19516461	      1.89771999	    -11.56984087	      5.69768405	    -13.95648596	      8.44152520	     13.73740967	     -1.71574084	     -6.31464265	    -62.95799578	      3.42976257	    -13.19456246	     -1.26833522	     -6.74619733	     -1.75063152	      5.16759940
      0.87100000	      3.31444204	      1.36807878	     -2.73105105	     -0.43982268	      1.03109576	      0.32857360	      0.96836365	      3.12352618	      2.01725573	    -11.21670277	      5.80044617	    -13.82120736	      8.45715432	     14.16360417	     -1.66347991	     -6.48140633	    -62.35202955	      3.71492445	    -12.50202586	     -1.19143160	     -6.78160863	     -1.83700356	      5.55820326
      0.87516667	      3.28715881	      1.44595546	     -2.92898256	     -0.43482335	      1.03140458	      0.32912125	      0.53587187	      3.03022717	      2.13375063	    -10.88821905	      5.87361110	    -13.70298709	      8.47111077	     14.60767165	     -1.58996543	     -6.65103871	    -61.68922387	      3.95987528	    -11.83114468	     -1.10746531	     -6.76845518	     -1.93175404	      5.88521958
      0.87933333	      3.25824998	      1.52250595	     -3.12062805	     -0.42982679	      1.03166630	      0.32965161	      0.10661031	      2.93664996	      2.24726858	    -10.56228305	      5.94770430	    -13.58830833	      8.48502536	     15.04117777	     -1.51630154	     -6.81418701	    -60.98577384	      4.19308919	    -11.17731582	     -1.01115283	     -6.75514503	     -2.02276629	      6.20800438
      0.88350000	      3.24720383	      1.58478532	     -3.30695208	     -0.42485609	      1.03189286	      0.33015767	     -0.34036423	      2.85486370	      2.35673715	    -10.23792157	      6.02251830	    -13.48029744	      8.49839196	     15.44627201	     -1.45830790	     -6.97342681	    -60.25191605	      4.42358458	    -10.53561899	     -0.90594374	     -6.76627858	     -2.09894256	      6.52037685
      0.88766667	      3.21560237	      1.65030497	     -3.48867328	     -0.41987184	      1.03205591	      0.33065438	     -0.76280935	      2.76941026	      2.46404309	     -9.91870322	      6.09693427	    -13.38149905	      8.51105336	     15.85844622	     -1.39617805	     -7.12768085	    -59.47521475	      4.63562794	     -9.91890389	     -0.79296986	     -6.74993683	     -2.17754930	      6.82370090
      0.89183333	      3.19023509	      1.70003447	     -3.66048452	     -0.41491148	      1.03217616	      0.33112597	     -1.19146443	      2.69893703	      2.57181145	     -9.60024489	      6.16742438	    -13.28967399	      8.52286809	     16.25498290	     -1.34943862	     -7.27008558	    -58.66891892	      4.83978711	     -9.32308947	     -0.66964337	     -6.74720240	     -2.23620419	      7.12169301
      0.89600000	      3.17191172	      1.76873089	     -3.82699378	     -0.40995048	      1.03228528	      0.33156078	     -1.61757485	      2.60224152	      2.64592165	     -9.29791610	      6.21145951	    -13.19602331	      8.52953767	     16.62360220	     -1.27306490	     -7.40675738	    -57.80261057	      4.99738644	     -8.77547091	     -0.58937538	     -6.74588134	     -2.32171672	      7.32627920
      0.90016667	      3.14482577	      1.80822766	     -3.98290002	     -0.40498911	      1.03231403	      0.33199144	     -2.04410218	      2.53951894	      2.74080952	     -8.98123350	      6.28792913	    -13.11202227	      8.53611302	     16.99484590	     -1.23448274	     -7.53689164	    -56.92495259	      5.18028768	     -8.21731208	     -0.50229622	     -6.73930116	     -2.36969597	      7.58331382
